<svg xmlns="http://www.w3.org/2000/svg" xmlns:xlink="http://www.w3.org/1999/xlink" viewBox="0 0 309.35 67.2"><defs><style>.cls-1{fill:none;}.cls-2{fill:#fff;}.cls-3{clip-path:url(#clip-path);}.cls-4{clip-path:url(#clip-path-2);}</style><clipPath id="clip-path" transform="translate(0 0)"><path id="SVGID" class="cls-1" d="M33.49,56.17A57,57,0,0,1,66.94,67h0V0H0V67H0A57.07,57.07,0,0,1,33.49,56.17Z"/></clipPath><clipPath id="clip-path-2" transform="translate(0 0)"><polygon id="SVGID-2" data-name="SVGID" class="cls-1" points="0 66.97 66.97 66.97 66.97 14.45 0 66.97"/></clipPath></defs><g id="レイヤー_2" data-name="レイヤー 2"><g id="レイヤー_1-2" data-name="レイヤー 1"><polygon class="cls-2" points="109.92 36.8 99.02 9.82 92.65 40.46 94.46 40.46 99.53 15.91 99.61 15.91 109.92 41.45 120.26 15.91 120.34 15.91 125.42 40.46 127.22 40.46 120.85 9.82 109.92 36.8"/><rect class="cls-2" x="142.59" y="10.8" width="1.89" height="29.66"/><path class="cls-2" d="M176.42,28H187a9.89,9.89,0,0,1-3.62,7.87,14.15,14.15,0,0,1-8.73,3.26,13.55,13.55,0,0,1-13.46-13.45,13.79,13.79,0,0,1,13.46-13.45,13.57,13.57,0,0,1,11.44,6.37l1.54-1.22c-3.11-4.25-7.48-6.92-12.87-6.92a15.4,15.4,0,0,0-15.45,15.34,15.39,15.39,0,0,0,15.22,15.1,15.55,15.55,0,0,0,11.25-4.79c2.63-2.88,3.18-6.14,3.11-9.88H176.42Z" transform="translate(0 0)"/><rect class="cls-2" x="204.57" y="10.8" width="1.89" height="29.66"/><polygon class="cls-2" points="221.71 12.57 229.38 12.57 229.38 40.46 231.27 40.46 231.27 12.57 238.94 12.57 238.94 10.8 221.71 10.8 221.71 12.57"/><polygon class="cls-2" points="253.55 40.46 267.71 40.46 267.71 38.69 255.44 38.69 255.44 25.12 267.4 25.12 267.4 23.35 255.44 23.35 255.44 12.57 267.71 12.57 267.71 10.8 253.55 10.8 253.55 40.46"/><path class="cls-2" d="M309.35,25.63a15.38,15.38,0,0,0-30.76,0A15.33,15.33,0,0,0,304.13,37L308,40.85l1.33-1.33-3.88-3.89A15,15,0,0,0,309.35,25.63ZM294,39.08a13.58,13.58,0,0,1-13.49-13.45,13.5,13.5,0,0,1,27,0,13.36,13.36,0,0,1-3.3,8.7l-4.42-4.41-1.33,1.33,4.42,4.42A13.4,13.4,0,0,1,294,39.08Z" transform="translate(0 0)"/><path class="cls-2" d="M95,48.91v4.71h4.28v.77H95v6.7h-.83v-13h5.23v.77Z" transform="translate(0 0)"/><path class="cls-2" d="M105.74,50.51a.71.71,0,0,1-1.41,0,.71.71,0,1,1,1.41,0Zm-.33,10.58h-.77V53.15h.77Z" transform="translate(0 0)"/><path class="cls-2" d="M111.79,54.39h0A2.59,2.59,0,0,1,114.18,53c2,0,2.61,1.27,2.61,3.32v4.79H116V56.3c0-1.43-.17-2.6-1.91-2.6-2,0-2.32,1.86-2.32,3.47v3.92H111V53.15h.77Z" transform="translate(0 0)"/><path class="cls-2" d="M127.36,59.66h0a3.53,3.53,0,0,1-3,1.6,3.91,3.91,0,0,1-3.92-4.19A3.81,3.81,0,0,1,124.26,53a3.65,3.65,0,0,1,3.06,1.55h0V46.92h.77V61.09h-.77Zm0-2.68a3.12,3.12,0,0,0-3.18-3.28,3.44,3.44,0,0,0,0,6.84C126.31,60.54,127.41,58.89,127.41,57Z" transform="translate(0 0)"/><path class="cls-2" d="M138.09,53.15h.81l3.38,7.18,3-7.18h.79l-5.32,12.58H140l1.9-4.5Z" transform="translate(0 0)"/><path class="cls-2" d="M156.68,57.12A4.15,4.15,0,1,1,152.5,53,4.09,4.09,0,0,1,156.68,57.12Zm-7.53,0a3.38,3.38,0,1,0,3.3-3.44A3.37,3.37,0,0,0,149.15,57.14Z" transform="translate(0 0)"/><path class="cls-2" d="M165.85,53.15v4.76a3.62,3.62,0,0,1-.48,2.29,3.18,3.18,0,0,1-4.74,0,3.62,3.62,0,0,1-.48-2.29V53.15h.77v4.49c0,1.53.17,2.9,2.08,2.9s2.08-1.37,2.08-2.9V53.15Z" transform="translate(0 0)"/><path class="cls-2" d="M170.86,54.18h0a1.81,1.81,0,0,1,1.72-1.2,2,2,0,0,1,.84.19l-.41.69a1,1,0,0,0-.55-.16c-1.74,0-1.64,2.17-1.64,3.34v4.05h-.77V53.15h.77Z" transform="translate(0 0)"/><path class="cls-2" d="M186,54.6a1.5,1.5,0,0,0-1.39-.9,1.35,1.35,0,0,0-1.36,1.24c0,1.91,3.87,1,3.87,3.85a2.45,2.45,0,0,1-2.56,2.47,2.73,2.73,0,0,1-2.73-2.09l.75-.24a2,2,0,0,0,2,1.61,1.78,1.78,0,0,0,1.79-1.79c0-1-.76-1.28-1.55-1.56-1.08-.39-2.32-.86-2.32-2.2a2.07,2.07,0,0,1,2.17-2,2.34,2.34,0,0,1,2,1.27Z" transform="translate(0 0)"/><path class="cls-2" d="M191.79,57.19A3.09,3.09,0,0,0,195,60.54a3.19,3.19,0,0,0,2.8-1.8l.65.37a3.92,3.92,0,0,1-7.41-2A3.91,3.91,0,0,1,194.86,53c2.41,0,3.83,1.93,3.82,4.21Zm6.11-.72a3.07,3.07,0,0,0-6.11,0Z" transform="translate(0 0)"/><path class="cls-2" d="M204,54.18h0a1.81,1.81,0,0,1,1.72-1.2,2,2,0,0,1,.84.19l-.41.69a1,1,0,0,0-.55-.16c-1.74,0-1.64,2.17-1.64,3.34v4.05h-.77V53.15H204Z" transform="translate(0 0)"/><path class="cls-2" d="M210.63,57.19a3.1,3.1,0,0,0,3.18,3.35,3.18,3.18,0,0,0,2.8-1.8l.65.37a3.91,3.91,0,0,1-7.4-2A3.91,3.91,0,0,1,213.71,53c2.4,0,3.83,1.93,3.81,4.21Zm6.12-.72a3.08,3.08,0,0,0-6.12,0Z" transform="translate(0 0)"/><path class="cls-2" d="M221.88,54.39h0A2.59,2.59,0,0,1,224.27,53c2,0,2.61,1.27,2.61,3.32v4.79h-.77V56.3c0-1.43-.17-2.6-1.91-2.6-2,0-2.32,1.86-2.32,3.47v3.92h-.77V53.15h.77Z" transform="translate(0 0)"/><path class="cls-2" d="M237.45,59.66h0a3.53,3.53,0,0,1-3,1.6,3.91,3.91,0,0,1-3.92-4.19A3.81,3.81,0,0,1,234.35,53a3.65,3.65,0,0,1,3.06,1.55h0V46.92h.77V61.09h-.77ZM237.5,57a3.12,3.12,0,0,0-3.18-3.28,3.44,3.44,0,0,0,.05,6.84C236.4,60.54,237.5,58.89,237.5,57Z" transform="translate(0 0)"/><path class="cls-2" d="M244,50.51a.71.71,0,0,1-1.41,0,.71.71,0,1,1,1.41,0Zm-.32,10.58h-.78V53.15h.78Z" transform="translate(0 0)"/><path class="cls-2" d="M249.09,54.58h0a3.55,3.55,0,0,1,3-1.6,3.92,3.92,0,0,1,3.92,4.21,3.8,3.8,0,0,1-3.89,4.07,3.58,3.58,0,0,1-3.05-1.54h0v6h-.77V53.15h.77ZM249,57.29a3.07,3.07,0,0,0,3.16,3.25,3.16,3.16,0,0,0,3.09-3.33,3.26,3.26,0,0,0-3.12-3.51C250.14,53.7,249,55.39,249,57.29Z" transform="translate(0 0)"/><path class="cls-2" d="M261.05,50.51a.71.71,0,0,1-1.41,0,.71.71,0,1,1,1.41,0Zm-.33,10.58H260V53.15h.77Z" transform="translate(0 0)"/><path class="cls-2" d="M267.19,61.09h-.78V53.87h-.87v-.72h.87V50.32h.78v2.83h1.39v.72h-1.39Z" transform="translate(0 0)"/><path class="cls-2" d="M271.13,53.15h.81l3.38,7.18,3-7.18h.79l-5.32,12.58H273l1.9-4.5Z" transform="translate(0 0)"/><g class="cls-3"><path class="cls-2" d="M1.2,2.9,36.3,38,1.2,64.56V2.9M0,0V67L38.12,38.12,0,0Z" transform="translate(0 0)"/><polygon class="cls-1" points="0 66.97 66.97 66.97 66.97 14.45 0 66.97"/><polygon class="cls-2" points="0 66.97 66.97 66.97 37.54 37.54 0 66.97"/><circle class="cls-2" cx="50.44" cy="9.46" r="4.46"/><g class="cls-4"><rect class="cls-2" x="37.6" y="11.31" width="0.9" height="55.89"/><rect class="cls-2" x="39.98" y="11.08" width="0.9" height="55.89"/><rect class="cls-2" x="42.35" y="11.08" width="0.9" height="55.89"/><rect class="cls-2" x="44.72" y="11.08" width="0.9" height="55.89"/><rect class="cls-2" x="47.09" y="11.08" width="0.9" height="55.89"/><rect class="cls-2" x="49.47" y="11.08" width="0.9" height="55.89"/><rect class="cls-2" x="51.84" y="11.08" width="0.9" height="55.89"/><rect class="cls-2" x="54.21" y="11.08" width="0.9" height="55.89"/><rect class="cls-2" x="56.58" y="11.08" width="0.9" height="55.89"/><rect class="cls-2" x="58.96" y="11.08" width="0.9" height="55.89"/><rect class="cls-2" x="61.33" y="11.08" width="0.9" height="55.89"/><rect class="cls-2" x="63.7" y="11.08" width="0.9" height="55.89"/><rect class="cls-2" x="66.08" y="11.08" width="0.9" height="55.89"/></g></g></g></g></svg>